<?xml version="1.0" encoding="iso-8859-1"?>
<!-- Generator: Adobe Illustrator 19.0.0, SVG Export Plug-In . SVG Version: 6.00 Build 0)  -->
<svg version="1.1" id="Layer_1" xmlns="http://www.w3.org/2000/svg" xmlns:xlink="http://www.w3.org/1999/xlink" x="0px" y="0px"
	 viewBox="0 0 512 512" style="enable-background:new 0 0 512 512;" xml:space="preserve">
<circle style="fill:#00000A;" cx="255.992" cy="255.992" r="77.928"/>
<path style="fill:#E21B1B;" d="M512,294.4v-76.8l-78.12-7.816c-4.424-16.232-11.176-31.736-20.048-46.032l50.4-61.56l-54.296-54.248
	l-64,52.384c-13.552-7.16-27.992-12.496-42.936-15.88L294.528,0.16h-77.072l-8.432,84.304c-14.944,3.384-29.384,8.72-42.936,15.88
	l-64-52.384l-54.296,54.272l50.4,61.56c-8.864,14.296-15.616,29.8-20.048,46.032L0,217.6v76.8l78.232,7.816
	c4.44,16.2,11.176,31.672,20,45.968l-50.4,61.6L102.08,464l64-52.376c13.552,7.152,27.992,12.496,42.936,15.88l8.456,84.336h77.072
	l8.432-84.304c14.944-3.384,29.384-8.72,42.936-15.88l64,52.376l54.272-54.272l-50.4-61.6c8.824-14.288,15.56-29.768,20-45.968
	L512,294.4z M256,371.44c-63.76,0.008-115.448-51.68-115.456-115.44s51.68-115.448,115.44-115.456s115.448,51.68,115.456,115.44
	c0,0.008,0,0.008,0,0.016C371.44,319.752,319.752,371.44,256,371.44z"/>
<g>
</g>
<g>
</g>
<g>
</g>
<g>
</g>
<g>
</g>
<g>
</g>
<g>
</g>
<g>
</g>
<g>
</g>
<g>
</g>
<g>
</g>
<g>
</g>
<g>
</g>
<g>
</g>
<g>
</g>
</svg>
